inDegrees=no
num_controls=7
num_derivatives=13
num_iterations=141
num_multipliers=7
num_parameters=0
num_slacks=7
num_states=26
objective=0.545137
objective_accelerations=0.042030
objective_balance=0.003882
objective_effort=0.041021
objective_height=0.448760
objective_ligament=0.009445
solver_duration=1461.890552
status=Solve_Succeeded
success=true
DataType=double
version=3
OpenSimVersion=4.5
endheader
time	/jointset/ground_pelvis/pelvis_tilt/value	/jointset/ground_pelvis/pelvis_tx/value	/jointset/ground_pelvis/pelvis_ty/value	/jointset/hip_r/hip_flexion_r/value	/jointset/hip_r/hip_adduction_r/value	/jointset/hip_r/hip_rotation_r/value	/jointset/back/lumbar_extension/value	/jointset/patellofemoral_r/patellar_flexion_r/value	/jointset/knee_r/knee_flexion_r/value	/jointset/knee_r/knee_adduction_r/value	/jointset/knee_r/knee_rotation_r/value	/jointset/ankle_r/ankle_angle_r/value	/jointset/subtalar_r/subtalar_angle_r/value	/jointset/ground_pelvis/pelvis_tilt/speed	/jointset/ground_pelvis/pelvis_tx/speed	/jointset/ground_pelvis/pelvis_ty/speed	/jointset/hip_r/hip_flexion_r/speed	/jointset/hip_r/hip_adduction_r/speed	/jointset/hip_r/hip_rotation_r/speed	/jointset/back/lumbar_extension/speed	/jointset/patellofemoral_r/patellar_flexion_r/speed	/jointset/knee_r/knee_flexion_r/speed	/jointset/knee_r/knee_adduction_r/speed	/jointset/knee_r/knee_rotation_r/speed	/jointset/ankle_r/ankle_angle_r/speed	/jointset/subtalar_r/subtalar_angle_r/speed	/forceset/tau_hip_flexion_r	/forceset/tau_hip_adduction_r	/forceset/tau_hip_rotation_r	/forceset/tau_knee_flexion_r	/forceset/tau_ankle_angle_r	/forceset/tau_subtalar_angle_r	/forceset/tau_lumbar_extension	lambda_cid13_p0	lambda_cid14_p0	lambda_cid14_p1	lambda_cid14_p2	lambda_cid14_p3	lambda_cid14_p4	lambda_cid14_p5	/jointset/ground_pelvis/pelvis_tilt/accel	/jointset/ground_pelvis/pelvis_tx/accel	/jointset/ground_pelvis/pelvis_ty/accel	/jointset/hip_r/hip_flexion_r/accel	/jointset/hip_r/hip_adduction_r/accel	/jointset/hip_r/hip_rotation_r/accel	/jointset/back/lumbar_extension/accel	/jointset/patellofemoral_r/patellar_flexion_r/accel	/jointset/knee_r/knee_flexion_r/accel	/jointset/knee_r/knee_adduction_r/accel	/jointset/knee_r/knee_rotation_r/accel	/jointset/ankle_r/ankle_angle_r/accel	/jointset/subtalar_r/subtalar_angle_r/accel	gamma_cid13_p0	gamma_cid14_p0	gamma_cid14_p1	gamma_cid14_p2	gamma_cid14_p3	gamma_cid14_p4	gamma_cid14_p5
0	-0.006515383728111152	0.09626029504751918	0.9427240761401557	0.1762555222360518	-0.2321526712181977	-0.2616406854366609	-0.038598046466844	0.0731786387345125	0.07317863873451017	0.1745327116690231	0.1745329251994329	0.03247278518263602	-0.003451955848868753	0	0	0	0	0	0	0	0	0	0	0	0	0	0.2405238625651143	-0.1579893743729545	-0.04518080595379938	-0.4109267330254379	0.3874194816537399	-0.1481051385199414	-0.1363390652790769	-39.07580477586551	73.82616170569956	-41.48805269372394	-4.242544075359688	-19.43703489775263	-682.6061299974848	55.06235553104798	-3.018430653372615	-1.623702780531467	-0.6897031678311779	10.37731954044316	0.2667612647908158	2.250888029918412	-5.48055880562907	8.707564773107904	8.707564773107892	-2.894976706774903	0.1692653563281406	2.129916130091658	0.7539586230594041	8.794165409361495e-08	5.170881078933494e-08	-5.769996316086222e-07	1.789989216552431e-07	2.790941037419347e-08	3.458776539976465e-08	-2.778509343970742e-07
0.01	-0.006659223837524513	0.09618041021904572	0.9426908173401546	0.1767587885098708	-0.2321381885953375	-0.2615206008049422	-0.038874527008354	0.07360098298524692	0.07360098298524732	0.1743882773944598	0.1745301789778583	0.03257615222776614	-0.003413861957877069	-0.02868317948018348	-0.01588106080184421	-0.006636192112768144	0.1001926876498309	0.002846775641743912	0.02388059014952457	-0.05491888526477978	0.08406029873981664	0.08406029873981641	-0.02866154450499296	-0.0005329062006820735	0.02057770657275281	0.007545531944427616	0.236132426320445	-0.1693244323435894	-0.04418981784355311	-0.4066680092039877	0.3800140329942868	-0.1350237382986703	-0.1325332254535951	-39.08981724538799	71.95736490330542	-36.20647092740055	-5.001809945146898	-19.1983661290046	-682.9776511712828	65.17871099780349	-2.780530393609594	-1.555916414257871	-0.6482351323284441	9.771163327536787	0.2861123440010233	2.436238221104677	-5.440969931288604	8.193962124995394	8.193962124995354	-2.81801950784291	-0.1618648196677549	2.007358192630038	0.7437931005096023	1.15594556470709e-07	5.548555679986974e-08	-7.401947512122328e-07	1.656310414675646e-07	5.31192270845037e-08	-1.366540786043956e-07	-3.086136082256348e-07
0.02	-0.007087349501394029	0.09594459304570435	0.94259166503916	0.1782501656502452	-0.2320967428900327	-0.2611657915290011	-0.03968887971138876	0.07485167016349938	0.07485167016349988	0.1739639724377405	0.1745226377807198	0.03288242839297654	-0.003302524223366082	-0.05685711089110022	-0.03118646897358139	-0.01317870019868491	0.19762217331101	0.00539261648888211	0.04694492884445604	-0.1075744323050035	0.1656685855027076	0.1656685855027069	-0.05597413642924207	-0.0009576608574169709	0.04058182401602317	0.01464876870386144	0.2317409900757844	-0.1806594903142268	-0.04319882973333918	-0.4024092853825281	0.3726085843348347	-0.121942338077401	-0.1287273856281061	-39.13118996266422	70.16547761172849	-30.93074779322193	-5.738065586352981	-19.0665833341316	-682.1250335000868	75.06878179192687	-2.916581039519248	-1.508572254510081	-0.6709663624609016	9.82467914271281	0.2065743058696689	2.087637738999734	-5.027891160717847	8.21716237772277	8.217162377722721	-2.625186190626123	0.1908956651176381	2.015198304195145	0.6654995860606358	1.432474588478031e-07	5.926230281040456e-08	-9.033898708158436e-07	1.52263161279886e-07	7.832904379481393e-08	-3.078959226085559e-07	-3.393762820541954e-07
0.03	-0.007794281920910787	0.09555782916904103	0.9424273000805752	0.1807030191002336	-0.2320315574437123	-0.2605866229850097	-0.04101814299798355	0.0769074745524128	0.07690747455241373	0.1732737558835136	0.1745136437661811	0.03338529974213817	-0.003122688081118478	-0.08435456723197582	-0.04614521438175871	-0.01969510076566027	0.2925081294409003	0.00759028704861732	0.06877967523151753	-0.1579202606268164	0.2451281209698024	0.2451281209698011	-0.08183196807294399	-0.0008613620243669297	0.05982852784249251	0.02122509953510239	0.2223127699341238	-0.1849521310253562	-0.04064863157502447	-0.3895994679475735	0.3525343346228887	-0.1101505579864885	-0.1215099963384556	-39.19884940471545	64.24126005785868	-26.92515564397051	-6.287240846461887	-15.48610796923469	-681.0011212227546	81.61356958367081	-2.640090235937805	-1.48634611976284	-0.6421605619904772	9.254506299726451	0.2181255547939838	2.215074184025771	-4.984234009805769	7.75569467346955	7.755694673469476	-2.530629318074959	-0.08397450983710776	1.854848010080873	0.6395700030190362	1.635576908662623e-07	6.51154467853995e-08	-1.024866348716644e-06	1.606216116768727e-07	9.215437561761917e-08	-4.027926751688468e-07	-3.758793389630926e-07
0.04	-0.00877094136474996	0.0950221137511376	0.9421977343846857	0.1840915226018395	-0.2319460428670408	-0.2597923707580539	-0.04284012563617514	0.07974694340445147	0.07974694340445197	0.1723320514794806	0.1745050184395159	0.03407572644720612	-0.002879914596285835	-0.1108025157554934	-0.06097677722160096	-0.0262188476596123	0.3847521836347626	0.009458442559093717	0.08996166543723506	-0.2061183026243369	0.3224014781275658	0.3224014781275639	-0.106271706389955	-0.000883923280747668	0.0780928951972835	0.02723623722087161	0.2128845497924576	-0.1892447717364859	-0.03809843341672006	-0.3767896505126193	0.3324600849109425	-0.098358777895576	-0.1142926070488097	-39.29145287994996	58.38651922735284	-22.91981677094495	-6.822189725755384	-12.00508777214463	-678.7833372460863	87.96110671327787	-2.706679476047626	-1.483135740843085	-0.6724356278562333	9.296298755507241	0.1406712960179039	1.957086502730901	-4.59833389585938	7.779926715856474	7.779926715856445	-2.341567525287943	0.1671236472315276	1.818731009859454	0.5524609569662805	1.83716527619595e-07	7.101140308955857e-08	-1.145482648438006e-06	1.694280276529247e-07	1.057449757932594e-07	-4.961153021323569e-07	-4.125007542860175e-07
0.05	-0.01000781529430675	0.09433927101816245	0.9419026704044844	0.1883900085522488	-0.2318433782467512	-0.258791089479131	-0.04513282034238758	0.08334902869624658	0.08334902869624655	0.171152893289731	0.1744970758839577	0.03494478429867649	-0.002579492484933677	-0.1364394387700093	-0.07551202144350537	-0.03280824542140897	0.4744750288109455	0.01102989080468708	0.1101602051995421	-0.2520649088704561	0.3976414212215081	0.3976414212215054	-0.1293243215618138	-0.0007191610770533774	0.09561877081772051	0.03278096941093391	0.2056848426300363	-0.1763693555328123	-0.03649264944544678	-0.3700593646041992	0.3258726152176021	-0.105037032545662	-0.108550835241011	-39.40744076116325	56.15682040771122	-26.24144508535657	-6.257384543886928	-11.02555694263442	-677.0179327415304	79.85745191242259	-2.472250407033449	-1.426735314612992	-0.6544363836413551	8.739794530609176	0.1585518162889119	2.031136019571868	-4.539464526798928	7.339867348487737	7.339867348487627	-2.251932726997514	-0.06095967022729687	1.704568686134308	0.5452347085195598	1.794432278713284e-07	6.469452920785294e-08	-1.103521103241282e-06	1.634036517796632e-07	1.092456027158138e-07	-5.621503866089176e-07	-4.006135360616293e-07
0.06	-0.01149706879258528	0.09351347253261839	0.9415412635400053	0.1935716263808064	-0.2317263650985139	-0.2575918431412669	-0.04787430921862337	0.08769228126744601	0.08769228126744623	0.16975024410549	0.1744903585149993	0.03598611147595097	-0.002225671979982248	-0.1612784294997189	-0.08956792773537751	-0.03948742451519397	0.5613785592645422	0.01232814814863458	0.1295546772254995	-0.2958771366290022	0.4706349340084354	0.4706349340084321	-0.1509699052881792	-0.0006388859599858954	0.1125467603580967	0.03791591594073013	0.1984851354676167	-0.1634939393291392	-0.03488686547417048	-0.3633290786957779	0.3192851455242625	-0.1117152871957484	-0.1028090634332114	-39.54493947574228	53.98905702306624	-29.57124946954324	-5.669548413803709	-10.12914361713501	-674.2560646566928	71.55411106662072	-2.547093019086353	-1.387268154836657	-0.6903918942538968	8.73243581098998	0.08603311568873188	1.796272955460964	-4.171458198344771	7.330640654453471	7.330640654453489	-2.060161236189278	0.1502262299061958	1.699153793847266	0.4705038249130548	1.741412065861523e-07	5.786343089726878e-08	-1.054714175100638e-06	1.567548215127463e-07	1.12321388659291e-07	-6.27036521928133e-07	-3.866838490563017e-07
0.07000000000000001	-0.0132313385402517	0.0925495075706379	0.9411124081045938	0.1996092987029884	-0.2315978228623438	-0.2562042989149396	-0.05104280581733434	0.09275530262038353	0.09275530262038324	0.168138334321434	0.1744857890606477	0.03719400867003089	-0.00182255283959749	-0.1854432011781414	-0.1031421879704914	-0.04630856504983685	0.6456912322456568	0.01334297980816472	0.1478306896529812	-0.337482509366982	0.5416019971841498	0.5416019971841526	-0.171185261182551	-0.000309363538328235	0.1289401219949027	0.04265030974737227	0.1909925963786517	-0.1580816823233732	-0.03310847127381048	-0.3572274261962621	0.3117373123308121	-0.1110709879996088	-0.09686362132578041	-39.70198160108664	51.77232761257152	-29.77083583333113	-5.533474418197911	-9.403053125798145	-671.848883851619	69.496767660331	-2.331295445333226	-1.330050952808245	-0.681836699280871	8.210995958420607	0.1034860842854463	1.824795432942994	-4.104125749556884	6.924603475937248	6.92460347593814	-1.968354432652349	-0.03077182937248445	1.595579724145707	0.4661187368998835	1.572010712605333e-07	4.811614941923399e-08	-9.246703107591137e-07	1.516448329564189e-07	1.073396156540753e-07	-6.556192059773381e-07	-3.53957421131929e-07
